<?xml version="1.0" encoding="UTF-8"?>
<svg width="120px" height="60px" viewBox="0 0 120 60" version="1.1" xmlns="http://www.w3.org/2000/svg" xmlns:xlink="http://www.w3.org/1999/xlink">
    <!-- Generator: Sketch 42 (36781) - http://www.bohemiancoding.com/sketch -->
    <title>Combined Shape</title>
    <desc>Created with Sketch.</desc>
    <defs></defs>
    <g id="Page-1" stroke="none" stroke-width="1" fill="none" fill-rule="evenodd">
        <g id="Desktop-HD" transform="translate(-1250.000000, -80.000000)" fill="#373E44">
            <path d="M1301.14566,139.54039 C1299.85945,139.555819 1294.27404,139.224452 1292.53784,139.052683 C1289.87868,138.758687 1287.66642,138.437949 1285.40583,137.193739 L1285.40583,129.942073 C1287.70397,129.401052 1290.26713,128.980716 1292.43378,128.905459 C1294.77769,128.785633 1302.66243,128.770719 1304.74783,128.785461 C1308.60732,128.929973 1310.00907,127.511423 1310.14467,125.332426 C1310.24547,124.066444 1310.20467,122.827891 1310.16164,121.575966 C1310.11604,119.754221 1308.60732,118.696008 1305.96221,118.188758 C1302.51021,117.647052 1293.048,116.151359 1288.9216,114.555726 C1287.59768,114.07299 1286.33393,113.472313 1285.18434,112.647582 C1282.70141,110.758638 1280.70858,108.157933 1280.88926,102.05825 C1281.65434,94.6252157 1282.14976,91.0225253 1284.99183,86.6163608 C1287.05855,83.7268029 1290.57124,80.2593677 1298.28455,80 C1299.58139,80 1305.97387,80.1085127 1306.47752,80.164569 C1319.43802,81.0698701 1323.62647,90.4371052 1323.68681,96.3033055 C1323.77784,97.9205391 1324.11726,118.468354 1324.13201,121.622937 C1324.13629,122.563038 1324.3132,127.106343 1323.02957,130.247383 C1321.57724,134.401722 1317.59176,139.029026 1309.65593,139.461363 C1308.64109,139.580333 1302.88477,139.560619 1301.14566,139.54039 Z M1310.10095,109.103005 C1310.11998,104.442616 1310.19472,98.295448 1309.96656,96.2573633 C1309.87913,94.8842405 1309.45176,91.8105709 1306.26872,90.8438993 C1305.57873,90.6359595 1300.57755,90.4547621 1299.88927,90.5944743 C1297.52891,91.1351522 1296.27921,92.8914123 1295.71436,95.5816017 C1295.37528,97.4216892 1295.06894,99.8554252 1295.24534,101.843282 C1295.29968,103.969822 1296.43984,105.479915 1297.87553,105.864766 C1298.8746,106.132362 1303.38397,106.922637 1304.60469,107.193147 C1306.48729,107.610398 1308.37555,108.035363 1310.10095,109.103005 Z M1250.00069,110.11699 C1251.07604,109.798138 1253.82829,109.297916 1255.86671,109.127347 C1261.60297,108.608441 1267.42357,108.898494 1271.33586,109.221975 C1274.15616,109.520427 1277.12835,109.798138 1279.63923,111.258174 L1279.63923,119.461254 C1276.56521,120.204729 1274.78495,120.370841 1272.44653,120.515182 C1269.72,120.767692 1262.7625,120.745064 1257.38349,120.243471 C1255.09341,119.964561 1252.87756,119.889476 1250,118.425841 C1250,116.128903 1250.00514,113.62951 1250.00069,110.11699 Z M1347.00316,139.676846 C1345.71695,139.692102 1340.13155,139.360907 1338.39517,139.188967 C1335.73601,138.895485 1333.52376,138.574404 1331.26316,137.330537 L1331.26316,130.078528 C1333.56164,129.537679 1336.12446,129.117342 1338.29129,129.042086 C1340.63502,128.922259 1348.51994,128.907345 1350.60534,128.921916 C1354.46482,129.0666 1355.86657,127.648049 1356.00234,125.468881 C1356.10314,124.202899 1356.06217,122.964346 1356.01897,121.712593 C1355.97337,119.890848 1354.46482,118.832635 1351.81972,118.325214 C1348.36754,117.783507 1338.90568,116.287986 1334.77894,114.692352 C1333.45519,114.209616 1332.1916,113.608768 1331.04168,112.784208 C1328.55874,110.895265 1326.56609,108.29456 1326.74677,102.194877 C1327.51184,94.7616708 1328.00709,91.1591518 1330.84917,86.752816 C1332.91588,83.8636009 1336.42857,80.3959942 1344.14172,80.1364552 C1345.43872,80.1364552 1351.8312,80.2451393 1352.33468,80.3011956 C1365.29552,81.2064967 1369.48363,90.5737318 1369.54432,96.4397607 C1369.63534,98.0569943 1369.9746,118.604981 1369.98951,121.759564 C1369.9938,122.699664 1370.17054,127.242627 1368.88707,130.383838 C1367.43475,134.538349 1363.44909,139.165653 1355.51326,139.59799 C1354.49859,139.716788 1348.74176,139.697245 1347.00316,139.676846 Z M1355.95846,109.23946 C1355.97731,104.579242 1356.05223,98.4320745 1355.82389,96.3939899 C1355.73663,95.0206956 1355.3091,91.9471975 1352.12606,90.9805259 C1351.43607,90.772586 1346.43488,90.5913887 1345.74678,90.7309295 C1343.38641,91.2716073 1342.13672,93.0280389 1341.57187,95.7182283 C1341.23279,97.5583158 1340.92628,99.9920518 1341.10285,101.979737 C1341.15702,104.106449 1342.29717,105.616541 1343.73304,106.001221 C1344.73176,106.268989 1349.24113,107.059092 1350.46219,107.329774 C1352.34445,107.746853 1354.23305,108.171818 1355.95846,109.23946 Z" id="Combined-Shape"></path>
        </g>
    </g>
</svg>